<?xml version="1.0" encoding="utf-8"?>
<!-- Generator: Adobe Illustrator 16.0.0, SVG Export Plug-In . SVG Version: 6.00 Build 0)  -->
<!DOCTYPE svg PUBLIC "-//W3C//DTD SVG 1.1//EN" "http://www.w3.org/Graphics/SVG/1.1/DTD/svg11.dtd">
<svg version="1.1" id="Layer_1" xmlns="http://www.w3.org/2000/svg" xmlns:xlink="http://www.w3.org/1999/xlink" x="0px" y="0px"
	 width="2500px" height="2500px" viewBox="0 0 2500 2500" enable-background="new 0 0 2500 2500" xml:space="preserve">
<g>
	<path d="M398,1687.312c-31.438,0-61.625-6.062-87.125-21.875c-23.312-14.438-62.25-50-60.875-125.25
		c1.75-95.312,84.125-138.062,133.375-163.562l15.625-8.188c64.875-35,114.188-66.562,155.125-99.5
		c54.312-43.688,90.625-85.562,104.562-109.188c-9.812-1.938-19.625-2.625-29.938-3.375c-15.25-1.125-30.375-2.312-44.875-5.062
		c-72.688-13.812-142-50-195.312-101.875C263.562,927.688,227.125,723,302,562.75c71-152,231.875-250.25,409.812-250.25
		c137.75,0,262.625,59.875,351.562,168.75c102.688,125.5,146,304.312,113.188,466.75c-54.25,268.5-266.375,522.062-567.375,678.062
		C575.5,1643.5,482.375,1687.312,398,1687.312L398,1687.312z M711.812,437.5c-131.625,0-245.25,68.25-296.5,178.188
		c-53.062,113.625-27.625,258.375,60.5,344.25c35.938,35,82.562,59.375,131.312,68.625c9.812,1.875,20.188,2.438,30.562,3.188
		c21.312,1.5,45.5,3.25,70.312,11.438c60.062,19.812,76,61.25,80.188,84.188c11.938,65.812-40.438,146.188-155.688,239
		c-47,37.75-102.375,73.438-174.188,112.125L441,1487.625c-45.375,23.5-65.688,37.062-66,54.938
		c-0.25,12.875,2.25,17.188,2.312,17.25c14.375,9.938,91.812-2,174.312-44.75c206.688-107.188,447.25-318.938,502.438-591.875
		c25.625-126.562-7.875-265.625-87.375-362.812C920.75,504.312,839.375,437.5,711.812,437.5z M1460.5,1687.375
		c-31.438,0-61.625-6.125-87.188-21.938c-23.312-14.5-62.25-50-60.875-125.25c1.75-95.312,84.188-138.062,133.438-163.562
		l15.562-8.188c64.875-34.938,114.188-66.562,155.188-99.5c56.25-45.438,91.125-86.188,104.562-109.188
		c-9.812-1.938-19.688-2.625-29.938-3.375c-15.188-1.125-30.312-2.312-44.875-5.062c-72.688-13.812-142-50-195.312-101.875
		c-125-121.75-161.438-326.438-86.625-486.625c72.125-154.375,229.188-250.312,409.875-250.312
		c137.688,0,262.562,59.938,351.562,168.75c102.688,125.5,146.062,304.375,113.25,466.75
		c-54.312,268.562-266.438,522.062-567.438,678.062C1637.938,1643.5,1544.875,1687.312,1460.5,1687.375z M1774.312,437.5
		c-131.562,0-245.188,68.312-296.5,178.188c-53.062,113.625-27.562,258.375,60.562,344.25c35.875,35,82.5,59.375,131.312,68.625
		c9.812,1.812,20.125,2.438,30.5,3.188c21.312,1.5,45.5,3.25,70.375,11.438c60.062,19.812,76,61.188,80.188,84.125
		c11.938,65.688-40.375,146.125-155.625,239c-47.188,37.875-102.562,73.562-174.312,112.188l-17.312,9.125
		c-45.312,23.5-65.625,37.062-65.938,54.938c-0.25,12.875,2.25,17.188,2.312,17.25c14.188,9.938,91.75-1.938,174.312-44.75
		c206.688-107.188,447.188-318.938,502.375-591.875c25.625-126.562-7.875-265.625-87.375-362.812
		C1983.25,504.312,1901.875,437.5,1774.312,437.5z"/>
</g>
<text transform="matrix(1 0 0 1 249.9688 2937.5)" enable-background="new    "><tspan x="0" y="0" font-family="'HelveticaNeue-Bold'" font-size="312.5">Created by </tspan><tspan x="1719.041" y="0" font-family="'MyriadPro-Regular'" font-size="312.5">✦</tspan><tspan x="1875.291" y="0" font-family="'HelveticaNeue-Bold'" font-size="312.5"> Shmidt Sergey </tspan><tspan x="4224.943" y="0" font-family="'MyriadPro-Regular'" font-size="312.5">✦</tspan></text>
<text transform="matrix(1 0 0 1 249.9688 3250)" font-family="'HelveticaNeue-Bold'" font-size="312.5">from the Noun Project</text>
</svg>
