<?xml version="1.0" encoding="utf-8"?>
<!-- Generator: Adobe Illustrator 16.0.0, SVG Export Plug-In . SVG Version: 6.00 Build 0)  -->
<!DOCTYPE svg PUBLIC "-//W3C//DTD SVG 1.1//EN" "http://www.w3.org/Graphics/SVG/1.1/DTD/svg11.dtd">
<svg version="1.1" id="Layer_1" xmlns="http://www.w3.org/2000/svg" xmlns:xlink="http://www.w3.org/1999/xlink" x="0px" y="0px"
	 width="119.333px" height="136px" viewBox="0 0 119.333 136" enable-background="new 0 0 119.333 136" xml:space="preserve">
<g>
	<polygon fill="#FFFFFF" points="5.117,99.812 4.841,36.665 59.39,4.852 114.216,36.187 114.492,99.334 59.943,131.148 	"/>
	<polygon fill="none" stroke="#E1E1E1" stroke-miterlimit="10" points="5.117,99.812 4.841,36.665 59.39,4.852 114.216,36.187 
		114.492,99.334 59.943,131.148 	"/>
	<path fill="#3B3D5E" d="M75.639,82.74H43.693c-2.029,0-3.681-1.65-3.681-3.68V58.169c0-2.029,1.651-3.681,3.681-3.681h17.201
		c0.679,0,1.228,0.551,1.228,1.229s-0.549,1.229-1.228,1.229H43.693c-0.676,0-1.225,0.55-1.225,1.224v20.891
		c0,0.674,0.549,1.223,1.225,1.223h31.945c0.675,0,1.224-0.549,1.224-1.223V60.63c0-0.679,0.549-1.229,1.228-1.229
		c0.681,0,1.229,0.55,1.229,1.229v18.43C79.319,81.09,77.668,82.74,75.639,82.74 M59.666,86.426c-0.678,0-1.229-0.549-1.229-1.229
		V82.74c0-0.68,0.551-1.229,1.229-1.229s1.229,0.549,1.229,1.229v2.457C60.895,85.877,60.344,86.426,59.666,86.426 M65.807,87.652
		H53.524c-0.679,0-1.229-0.549-1.229-1.227c0-0.68,0.55-1.229,1.229-1.229h12.282c0.681,0,1.229,0.549,1.229,1.229
		C67.036,87.104,66.487,87.652,65.807,87.652 M53.524,76.598h-6.93c-0.678,0-1.228-0.549-1.228-1.227c0-0.68,0.55-1.229,1.228-1.229
		h2.017c0.656,0,0.931-0.473,1.545-2.664c0.801-2.852,2.01-7.164,8.281-7.164c0.325,0,0.639,0.129,0.868,0.36l3.686,3.684
		c0.199,0.199,0.324,0.461,0.352,0.74c0.014,0.105,0.248,2.578-1.642,4.68C60.017,75.65,57.266,76.598,53.524,76.598 M51.867,74.143
		h1.657c2.973,0,5.169-0.695,6.351-2.008c0.796-0.885,0.982-1.867,1.022-2.395l-2.957-2.958c-3.97,0.192-4.675,2.706-5.418,5.36
		C52.34,72.791,52.142,73.492,51.867,74.143 M62.122,70.457c-0.312,0-0.624-0.117-0.862-0.354c-0.482-0.477-0.487-1.254-0.012-1.738
		L76.5,52.903c0.485-0.483,0.485-1.264,0.006-1.742c-0.481-0.479-1.259-0.477-1.738,0L59.3,66.418
		c-0.482,0.477-1.261,0.469-1.736-0.013c-0.478-0.482-0.472-1.26,0.012-1.736l15.462-15.251c1.431-1.432,3.767-1.432,5.206,0.005
		c1.436,1.438,1.436,3.774,0,5.212L62.997,70.092C62.757,70.334,62.439,70.457,62.122,70.457 M64.579,66.772
		c-0.314,0-0.629-0.12-0.868-0.36l-2.457-2.455c-0.479-0.481-0.479-1.258,0-1.737c0.48-0.481,1.257-0.481,1.737,0l2.456,2.456
		c0.48,0.48,0.48,1.257,0,1.736C65.208,66.652,64.893,66.772,64.579,66.772"/>
</g>
</svg>
