<?xml version="1.0" encoding="utf-8"?>
<!-- Generator: Adobe Illustrator 16.0.0, SVG Export Plug-In . SVG Version: 6.00 Build 0)  -->
<!DOCTYPE svg PUBLIC "-//W3C//DTD SVG 1.1//EN" "http://www.w3.org/Graphics/SVG/1.1/DTD/svg11.dtd">
<svg version="1.1" id="Layer_1" xmlns="http://www.w3.org/2000/svg" xmlns:xlink="http://www.w3.org/1999/xlink" x="0px" y="0px"
	 width="119.333px" height="136px" viewBox="0 0 119.333 136" enable-background="new 0 0 119.333 136" xml:space="preserve">
<g>
	<polygon fill="#FFFFFF" points="5.117,99.812 4.841,36.665 59.391,4.852 114.216,36.187 114.492,99.336 59.943,131.148 	"/>
	<polygon fill="none" stroke="#E1E1E1" stroke-miterlimit="10" points="5.117,99.812 4.841,36.665 59.391,4.852 114.216,36.187 
		114.492,99.336 59.943,131.148 	"/>
	<path fill="#3B3D5E" d="M65.718,82.039c2.608,0.604,4.936,1.711,6.788,3.172c2.016,1.598,3.469,3.617,4.111,5.871
		c0.134,0.475-0.229,0.943-0.712,0.943H46.453c-0.41,0-0.741-0.332-0.741-0.742c0-0.084,0.015-0.168,0.04-0.242
		c0.652-2.242,2.099-4.248,4.105-5.834c1.853-1.467,4.185-2.574,6.794-3.172V79.48c-0.979-0.508-1.868-1.176-2.639-1.965
		c-1.843-1.898-2.989-4.512-3.004-7.393V69.9h-1.176c-1.73,0-3.148-1.418-3.148-3.147v-0.281c0-1.729,1.418-3.147,3.148-3.147h1.146
		l-0.005-0.677c-0.618-0.242-1.155-0.643-1.565-1.156c-0.524-0.652-0.84-1.487-0.84-2.386v-4.373c0-0.059,0-0.114,0.005-0.173
		h-5.145c-0.606,0-0.948-0.692-0.602-1.176c1.62-2.628,4.312-4.901,7.327-6.551c3.226-1.765,6.838-2.827,9.905-2.857
		c0.331-0.005,0.643,0.005,0.939,0.025c2.693,0.193,5.094,1.309,6.828,2.96c1.171,1.116,2.046,2.48,2.501,3.972
		c1.007,0.02,1.921,0.445,2.588,1.122c0.682,0.686,1.101,1.635,1.101,2.677v4.373c0,0.924-0.336,1.779-0.889,2.441
		c-0.43,0.515-0.993,0.914-1.635,1.142l-0.005,0.633h1.283c1.734,0,3.147,1.412,3.147,3.146v0.281c0,1.731-1.418,3.149-3.147,3.149
		h-1.353v0.221c0,2.719-1.141,5.455-3.034,7.402c-0.774,0.799-1.675,1.471-2.667,1.98v2.529V82.039z M62.649,67.094
		c-0.011,0.801-0.544,1.453-1.196,1.453h-0.811c-0.651,0-1.186-0.652-1.195-1.453H62.649z M63.963,72.514
		c0.534,0,1.008,0.258,1.3,0.652c0.139-0.039,0.281-0.08,0.431-0.129c0.558-0.178,1.155-0.404,1.759-0.695
		c1.156-0.564,2.068-2.486,2.612-4.424v-9.88c0-0.717-0.054-1.374-0.236-2.065c-0.133-0.504-0.316-0.974-0.548-1.409H53.262
		c-0.243,0.435-0.435,0.91-0.574,1.414c-0.172,0.627-0.261,1.309-0.257,2.05l0.056,12.089c0,0.357,0.024,0.703,0.063,1.047
		c0.242,2.066,1.161,3.92,2.525,5.322c0.519,0.533,1.097,0.998,1.729,1.383c1.295,0.791,2.802,1.246,4.407,1.246
		c1.685,0,3.256-0.5,4.59-1.363c0.553-0.355,1.062-0.781,1.522-1.25c1.141-1.172,1.971-2.664,2.361-4.334
		c-0.455,0.678-0.982,1.211-1.591,1.508c-0.668,0.326-1.334,0.578-1.966,0.775c-0.228,0.074-0.455,0.137-0.673,0.193
		c-0.231,0.592-0.815,1.012-1.497,1.012c-0.884,0-1.6-0.701-1.6-1.572c0-0.869,0.716-1.57,1.6-1.57H63.963z M72.145,64.812
		c-0.144,0.849-0.375,2.006-0.711,3.206l-0.005,0.406h1.339c0.918,0,1.665-0.752,1.665-1.667v-0.281
		c0-0.914-0.752-1.664-1.665-1.664H72.145z M50.05,54.563c-0.005,0.055-0.005,0.114-0.005,0.173v0.885v3.488
		c0,0.553,0.193,1.062,0.514,1.458c0.119,0.148,0.258,0.281,0.405,0.395l-0.015-2.93c-0.005-0.88,0.104-1.695,0.312-2.446
		c0.099-0.356,0.217-0.696,0.355-1.023H50.05z M70.643,53.986c0.258,0.499,0.46,1.038,0.612,1.616
		c0.198,0.756,0.297,1.571,0.282,2.451l-0.03,2.984c0.183-0.124,0.346-0.272,0.484-0.44c0.336-0.405,0.539-0.924,0.539-1.492v-4.373
		c0-0.637-0.257-1.22-0.672-1.64c-0.326-0.331-0.751-0.563-1.226-0.642c0.03,0.257,0.044,0.519,0.044,0.78
		c0,0.213,0.011,0.549-0.034,0.751V53.986z M60.89,45.482c-0.286-0.019-0.558-0.029-0.825-0.024
		c-2.825,0.029-6.186,1.022-9.21,2.677c-2.37,1.3-4.524,3-6.026,4.946h24.368c-0.064-1.892-0.963-3.676-2.397-5.039
		c-1.496-1.423-3.572-2.392-5.914-2.555L60.89,45.482z M59.714,70.543h3.869c0.646,0,0.632,1.186,0,1.186h-3.869
		C59.146,71.729,59.131,70.543,59.714,70.543 M65.278,60.586l1.882-0.474c0.924-0.232,1.299,1.156,0.355,1.398l-1.882,0.475
		c-0.925,0.232-1.3-1.157-0.352-1.399H65.278z M66.146,63.175c-0.721,0-1.304,0.5-1.304,1.112c0,0.044,0.005,0.089,0.01,0.133h2.584
		c0.006-0.044,0.011-0.089,0.011-0.133c0-0.612-0.583-1.112-1.306-1.112H66.146z M56.705,63.152c-0.721,0-1.304,0.499-1.304,1.111
		c0,0.045,0.005,0.088,0.01,0.133h2.584c0.005-0.045,0.01-0.088,0.01-0.133c0-0.612-0.583-1.111-1.305-1.111H56.705z M54.704,60.306
		h1.985c0.975,0,1,1.477,0,1.477h-1.985C53.73,61.783,53.706,60.311,54.704,60.306 M58.133,80.104v3.285
		c0,0.736-0.029,1.105,0.776,1.67c0.567,0.395,1.364,0.643,2.258,0.643c0.895,0,1.69-0.248,2.258-0.643
		c0.701-0.488,0.805-0.953,0.805-1.666v-3.27c-0.952,0.307-1.966,0.475-3.019,0.475c-1.071,0-2.104-0.174-3.077-0.49L58.133,80.104
		L58.133,80.104z M50.999,68.424l-0.015-3.612h-1.151c-0.919,0-1.665,0.75-1.665,1.664v0.281c0,0.915,0.751,1.667,1.665,1.667
		H50.999z M56.646,83.557c-2.263,0.564-4.278,1.543-5.88,2.807c-1.481,1.176-2.617,2.6-3.274,4.18h27.367
		c-0.657-1.574-1.789-3.004-3.271-4.174c-1.601-1.27-3.612-2.244-5.869-2.809c-0.024,1.203-0.436,2.016-1.442,2.713
		c-0.807,0.559-1.903,0.91-3.104,0.91s-2.297-0.346-3.103-0.91c-0.89-0.623-1.531-1.594-1.413-2.717H56.646z"/>
</g>
</svg>
