<?xml version="1.0" encoding="utf-8"?>
<!-- Generator: Adobe Illustrator 16.0.0, SVG Export Plug-In . SVG Version: 6.00 Build 0)  -->
<!DOCTYPE svg PUBLIC "-//W3C//DTD SVG 1.1//EN" "http://www.w3.org/Graphics/SVG/1.1/DTD/svg11.dtd">
<svg version="1.1" id="Layer_1" xmlns="http://www.w3.org/2000/svg" xmlns:xlink="http://www.w3.org/1999/xlink" x="0px" y="0px"
	 width="119.333px" height="136px" viewBox="0 0 119.333 136" enable-background="new 0 0 119.333 136" xml:space="preserve">
<g>
	<polygon fill="#FFFFFF" points="5.117,99.812 4.841,36.665 59.391,4.852 114.217,36.187 114.492,99.334 59.943,131.148 	"/>
	<polygon fill="none" stroke="#E1E1E1" stroke-miterlimit="10" points="5.117,99.812 4.841,36.665 59.391,4.852 114.217,36.187 
		114.492,99.334 59.943,131.148 	"/>
	<path fill="#3B3D5E" d="M48.812,45.801c-1.621,0-2.958,1.337-2.958,2.96v38.477c0,1.623,1.338,2.961,2.958,2.961H70.52
		c1.621,0,2.959-1.338,2.959-2.961V48.761c0-1.623-1.338-2.96-2.959-2.96H48.812z M48.812,47.774H70.52
		c0.562,0,0.986,0.424,0.986,0.987v0.987H47.828v-0.987C47.828,48.198,48.25,47.774,48.812,47.774 M47.828,51.721h23.678v30.585
		H47.828V51.721z M63.119,60.107c-1.623,0-2.959,1.338-2.959,2.96c0,1.623,1.336,2.959,2.959,2.959s2.961-1.336,2.961-2.959
		C66.08,61.445,64.742,60.107,63.119,60.107 M56.213,61.093c-1.623,0-2.959,1.337-2.959,2.96s1.336,2.96,2.959,2.96
		s2.961-1.337,2.961-2.96S57.836,61.093,56.213,61.093 M63.119,62.081c0.557,0,0.986,0.43,0.986,0.986s-0.43,0.986-0.986,0.986
		s-0.986-0.43-0.986-0.986S62.562,62.081,63.119,62.081 M56.213,63.067c0.557,0,0.988,0.431,0.988,0.986
		c0,0.557-0.432,0.987-0.988,0.987s-0.986-0.431-0.986-0.987C55.227,63.498,55.656,63.067,56.213,63.067 M63.119,67.014
		c-1.771,0-3.299,0.543-4.316,1.434C58.033,68.17,57.158,68,56.213,68c-1.406,0-2.664,0.352-3.637,0.924
		c-0.975,0.574-1.789,1.387-1.789,2.529v2.467c0,0.545,0.441,0.986,0.986,0.986h8.881c0.543,0,0.984-0.441,0.984-0.986v-0.986h5.92
		c0.545-0.002,0.986-0.441,0.986-0.986v-1.48c0-1.141-0.814-1.955-1.787-2.529C65.785,67.365,64.525,67.014,63.119,67.014
		 M63.119,68.986c1.055,0,2.004,0.291,2.637,0.662c0.631,0.373,0.816,0.809,0.816,0.818v0.492h-4.979
		c-0.121-0.549-0.457-0.998-0.879-1.387C61.332,69.256,62.176,68.986,63.119,68.986 M56.213,69.973c1.055,0,2.004,0.291,2.637,0.664
		c0.631,0.371,0.816,0.807,0.816,0.816v1.48H52.76v-1.48c0-0.01,0.186-0.445,0.818-0.816C54.209,70.264,55.16,69.973,56.213,69.973
		 M47.828,84.279h23.678v2.959c0,0.564-0.424,0.986-0.986,0.986H48.812c-0.562,0-0.98-0.422-0.985-0.986V84.279z M59.666,85.266
		c-0.545,0-0.986,0.441-0.986,0.986s0.441,0.986,0.986,0.986s0.988-0.441,0.988-0.986S60.211,85.266,59.666,85.266"/>
</g>
</svg>
