<?xml version="1.0" encoding="utf-8"?>
<!-- Generator: Adobe Illustrator 16.0.0, SVG Export Plug-In . SVG Version: 6.00 Build 0)  -->
<!DOCTYPE svg PUBLIC "-//W3C//DTD SVG 1.1//EN" "http://www.w3.org/Graphics/SVG/1.1/DTD/svg11.dtd">
<svg version="1.1" id="Layer_1" xmlns="http://www.w3.org/2000/svg" xmlns:xlink="http://www.w3.org/1999/xlink" x="0px" y="0px"
	 width="119.333px" height="136px" viewBox="0 0 119.333 136" enable-background="new 0 0 119.333 136" xml:space="preserve">
<g>
	<polygon fill="#FFFFFF" points="5.117,99.812 4.841,36.665 59.391,4.852 114.217,36.187 114.492,99.336 59.943,131.148 	"/>
	<polygon fill="none" stroke="#E1E1E1" stroke-miterlimit="10" points="5.117,99.812 4.841,36.665 59.391,4.852 114.217,36.187 
		114.492,99.336 59.943,131.148 	"/>
	<path fill="#3B3D5E" d="M76.838,85.455h-5.347c-0.387,0-0.7-0.314-0.7-0.701V58.406c0-0.387,0.313-0.701,0.7-0.701h5.347
		c0.387,0,0.701,0.314,0.701,0.701v26.348C77.539,85.141,77.225,85.455,76.838,85.455 M72.193,84.053h3.943V59.107h-3.943V84.053z
		 M67.118,85.455h-5.346c-0.388,0-0.701-0.314-0.701-0.701V66.541c0-0.387,0.313-0.701,0.701-0.701h5.346
		c0.388,0,0.701,0.314,0.701,0.701v18.213C67.819,85.141,67.506,85.455,67.118,85.455 M62.474,84.053h3.944V67.242h-3.944V84.053z
		 M57.561,85.455h-5.346c-0.387,0-0.701-0.314-0.701-0.701V69.768c0-0.389,0.314-0.703,0.701-0.703h5.346
		c0.388,0,0.701,0.314,0.701,0.703v14.986C58.262,85.141,57.948,85.455,57.561,85.455 M52.916,84.053h3.943V70.467h-3.943V84.053z
		 M47.842,85.455h-5.346c-0.388,0-0.701-0.314-0.701-0.701V74.395c0-0.387,0.313-0.701,0.701-0.701h5.346
		c0.387,0,0.701,0.314,0.701,0.701v10.359C48.543,85.141,48.229,85.455,47.842,85.455 M43.196,84.053h3.943v-8.957h-3.943V84.053z
		 M45.153,72.799c-1.263,0-2.291-1.027-2.291-2.291s1.028-2.291,2.291-2.291c0.681,0,1.292,0.299,1.712,0.77l5.51-3.26
		c-0.011-0.088-0.016-0.178-0.016-0.268c0-1.263,1.028-2.291,2.291-2.291c0.748,0,1.414,0.36,1.832,0.917l5.495-1.645
		c0-0.022,0-0.044,0-0.066c0-1.263,1.027-2.291,2.29-2.291c0.428,0,0.829,0.117,1.172,0.322l6.28-6.5
		c-0.169-0.319-0.265-0.683-0.265-1.069c0-1.263,1.027-2.291,2.291-2.291c1.263,0,2.291,1.028,2.291,2.291
		c0,1.263-1.028,2.291-2.291,2.291c-0.367,0-0.716-0.087-1.023-0.242l-6.354,6.576c0.122,0.28,0.189,0.588,0.189,0.913
		c0,1.263-1.027,2.29-2.291,2.29c-0.74,0-1.4-0.354-1.819-0.9l-5.507,1.648c0,0.016,0,0.031,0,0.047
		c0,1.264-1.026,2.292-2.291,2.292c-0.667,0-1.268-0.285-1.687-0.742l-5.531,3.273c0.008,0.074,0.012,0.15,0.012,0.227
		C47.444,71.771,46.418,72.799,45.153,72.799 M45.153,69.619c-0.489,0-0.888,0.4-0.888,0.889c0,0.49,0.398,0.889,0.888,0.889
		c0.49,0,0.889-0.398,0.889-0.889c0-0.107-0.02-0.211-0.055-0.309c-0.004-0.006-0.007-0.014-0.009-0.021
		C45.848,69.852,45.526,69.619,45.153,69.619 M53.834,65.808c0.137,0.316,0.451,0.539,0.816,0.539c0.49,0,0.89-0.399,0.89-0.889
		c0-0.1-0.018-0.197-0.049-0.287c-0.004-0.01-0.007-0.019-0.01-0.029c-0.128-0.334-0.452-0.571-0.83-0.571
		c-0.491,0-0.889,0.397-0.889,0.888c0,0.115,0.021,0.225,0.062,0.326C53.828,65.792,53.832,65.8,53.834,65.808 M64.268,61.485
		c-0.49,0-0.888,0.399-0.888,0.889c0,0.489,0.397,0.888,0.888,0.888c0.491,0,0.889-0.398,0.889-0.888c0-0.214-0.074-0.41-0.2-0.563
		c-0.004-0.002-0.006-0.005-0.008-0.008C64.785,61.609,64.541,61.485,64.268,61.485 M73.746,51.948c-0.49,0-0.889,0.398-0.889,0.888
		c0,0.49,0.398,0.888,0.889,0.888c0.489,0,0.888-0.398,0.888-0.888C74.634,52.346,74.234,51.948,73.746,51.948"/>
</g>
</svg>
