<?xml version="1.0" encoding="utf-8"?>
<!-- Generator: Adobe Illustrator 16.0.0, SVG Export Plug-In . SVG Version: 6.00 Build 0)  -->
<!DOCTYPE svg PUBLIC "-//W3C//DTD SVG 1.1//EN" "http://www.w3.org/Graphics/SVG/1.1/DTD/svg11.dtd">
<svg version="1.1" id="Layer_1" xmlns="http://www.w3.org/2000/svg" xmlns:xlink="http://www.w3.org/1999/xlink" x="0px" y="0px"
	 width="119.333px" height="136px" viewBox="0 0 119.333 136" enable-background="new 0 0 119.333 136" xml:space="preserve">
<g>
	<polygon fill="#FFFFFF" points="5.117,99.812 4.841,36.665 59.39,4.852 114.216,36.187 114.492,99.334 59.943,131.148 	"/>
	<polygon fill="none" stroke="#E1E1E1" stroke-miterlimit="10" points="5.117,99.812 4.841,36.665 59.39,4.852 114.216,36.187 
		114.492,99.334 59.943,131.148 	"/>
	<path fill="#3B3D5E" d="M44.514,50.343c-2.118,0-3.863,1.744-3.863,3.861v0.213c-0.042-0.002-0.085-0.002-0.127,0H39.08
		c-2.115,0-3.862,1.746-3.862,3.862v23.515c0,2.115,1.747,3.861,3.862,3.861h37.076c2.116,0,3.883-1.73,3.883-3.861v-1.4
		c0.004-0.057,0.004-0.113,0-0.17h0.213c2.118,0,3.862-1.766,3.862-3.883V54.205c0-2.117-1.744-3.861-3.862-3.861H44.514z
		 M44.514,53.059h35.738c0.66,0,1.146,0.485,1.146,1.146v2.93H43.367v-2.93C43.367,53.544,43.854,53.059,44.514,53.059
		 M39.08,57.134h1.443c0.042,0.002,0.085,0.002,0.127,0v19.208c0,2.117,1.745,3.883,3.863,3.883h32.83
		c-0.01,0.055-0.018,0.113-0.021,0.17v1.4c0,0.648-0.505,1.146-1.167,1.146H39.08c-0.662,0-1.146-0.484-1.146-1.146V58.28
		C37.935,57.618,38.418,57.134,39.08,57.134 M43.367,59.851h38.031v3.396H43.367V59.851z M43.367,65.963h38.031v10.378
		c0,0.658-0.486,1.166-1.146,1.166H44.514c-0.66,0-1.146-0.508-1.146-1.166V65.963z M46.635,68c-0.75,0.035-1.33,0.672-1.295,1.422
		c0.037,0.75,0.672,1.33,1.422,1.295h14.941c0.75,0.01,1.367-0.588,1.379-1.338c0.01-0.752-0.59-1.367-1.34-1.379
		c-0.013,0-0.025,0-0.039,0H46.762C46.721,67.998,46.678,67.998,46.635,68 M46.635,72.754c-0.75,0.035-1.33,0.672-1.295,1.422
		c0.037,0.75,0.672,1.33,1.422,1.295h6.793c0.75,0.01,1.365-0.588,1.377-1.34c0.011-0.75-0.59-1.365-1.34-1.377
		c-0.013,0-0.025,0-0.037,0h-6.793C46.721,72.752,46.678,72.752,46.635,72.754"/>
</g>
</svg>
