<?xml version="1.0" encoding="utf-8"?>
<!-- Generator: Adobe Illustrator 16.0.0, SVG Export Plug-In . SVG Version: 6.00 Build 0)  -->
<!DOCTYPE svg PUBLIC "-//W3C//DTD SVG 1.1//EN" "http://www.w3.org/Graphics/SVG/1.1/DTD/svg11.dtd">
<svg version="1.1" id="Layer_1" xmlns="http://www.w3.org/2000/svg" xmlns:xlink="http://www.w3.org/1999/xlink" x="0px" y="0px"
	 width="119.333px" height="136px" viewBox="0 0 119.333 136" enable-background="new 0 0 119.333 136" xml:space="preserve">
<g>
	<polygon fill="#FFFFFF" points="3.835,100.9 3.559,37.753 58.108,5.94 112.934,37.275 113.21,100.422 58.66,132.236 	"/>
	<polygon fill="none" stroke="#E1E1E1" stroke-miterlimit="10" points="3.835,100.9 3.559,37.753 58.108,5.94 112.934,37.275 
		113.21,100.422 58.66,132.236 	"/>
	<path fill="#3B3D5E" d="M67.729,74.07c-1.389-2.672-3.623-4.875-6.4-6.186c2.258-2.022,3.596-5.091,3.596-8.445
		c0-5.961-4.306-10.811-9.598-10.811c-5.291,0-9.597,4.85-9.597,10.811c0,3.338,1.394,6.475,3.672,8.5
		c-4.763,2.28-7.838,7.07-7.838,12.496v6.121c0,0.611,0.494,1.105,1.104,1.105h19.745c1.357,1.172,3.12,1.885,5.049,1.885
		c4.271,0,7.745-3.475,7.745-7.746C75.205,77.621,71.875,74.213,67.729,74.07 M43.772,80.436c0-5.17,3.321-9.652,8.264-11.156
		c0.427-0.129,0.733-0.502,0.778-0.947c0.044-0.443-0.184-0.87-0.576-1.082c-2.611-1.405-4.299-4.471-4.299-7.81
		c0-4.743,3.314-8.602,7.387-8.602c4.074,0,7.389,3.859,7.389,8.602c0,3.306-1.662,6.359-4.234,7.777
		c-0.391,0.216-0.613,0.645-0.564,1.089s0.36,0.813,0.788,0.938c2.832,0.826,5.168,2.697,6.649,5.111
		c-3.248,0.92-5.639,3.906-5.639,7.445c0,1.32,0.334,2.564,0.918,3.652h-16.86V80.436z M67.461,87.338
		c-3.054,0-5.537-2.484-5.537-5.537s2.483-5.535,5.537-5.535c3.051,0,5.535,2.482,5.535,5.535S70.512,87.338,67.461,87.338"/>
	<polygon fill="#3B3D5E" points="61.25,65.372 57.414,69.207 55.519,67.312 53.721,69.109 57.414,72.805 63.049,67.17 	"/>
</g>
</svg>
