<svg xmlns:dc="http://purl.org/dc/elements/1.1/" xmlns:cc="http://creativecommons.org/ns#" xmlns:rdf="http://www.w3.org/1999/02/22-rdf-syntax-ns#" xmlns:svg="http://www.w3.org/2000/svg" xmlns="http://www.w3.org/2000/svg" xmlns:sodipodi="http://sodipodi.sourceforge.net/DTD/sodipodi-0.dtd" xmlns:inkscape="http://www.inkscape.org/namespaces/inkscape" version="1.1" x="0px" y="0px" viewBox="0 0 100 125"><defs><clipPath clipPathUnits="userSpaceOnUse" id="a"><path transform="matrix(0.18360657,0,0,0.18260869,190.37192,664.37679)" d="m 674.28571,549.50507 a 261.42856,262.85715 0 1 1 -522.85712,0 261.42856,262.85715 0 1 1 522.85712,0 z" style="" fill="#f29f4a" fill-opacity="1" stroke="none"/></clipPath></defs><g transform="translate(0,-952.36218)"><path d="m 41.753598,1012.2301 c -0.640577,0 -1.253808,0.09 -1.816258,0.293 -0.546834,0.2032 -1.029215,0.5039 -1.43543,0.8789 -0.390595,0.375 -0.70307,0.8165 -0.937424,1.3477 -0.218732,0.5313 -0.32224,1.131 -0.322239,1.7873 -10e-7,0.6718 0.11913,1.2578 0.322239,1.7579 0.203107,0.4999 0.449181,0.9433 0.761657,1.3183 0.328097,0.375 0.693301,0.6856 1.083896,0.9669 0.39059,0.2813 0.753842,0.5411 1.113191,0.791 0.31247,0.2188 0.611273,0.4551 0.908129,0.6739 0.296845,0.2187 0.572214,0.4668 0.790951,0.7324 0.23435,0.2657 0.415975,0.5508 0.556595,0.879 0.140607,0.3281 0.205055,0.6914 0.205062,1.1133 -7e-6,0.7969 -0.234363,1.4356 -0.703068,1.9044 -0.453093,0.4688 -1.08976,0.7032 -1.933436,0.7032 -0.562458,0 -1.056557,-0.065 -1.494019,-0.2052 -0.421843,-0.1562 -0.853447,-0.3652 -1.259663,-0.6152 l -0.644479,1.6993 c 0.437464,0.2813 0.931563,0.502 1.494019,0.6738 0.562451,0.172 1.212788,0.2637 1.962731,0.2637 0.812428,0 1.515496,-0.1172 2.109203,-0.3515 0.609319,-0.2501 1.103419,-0.5899 1.494019,-0.9962 0.406209,-0.4219 0.720636,-0.8887 0.908129,-1.4356 0.187476,-0.5469 0.263642,-1.1485 0.263651,-1.7579 -9e-6,-0.6719 -0.08984,-1.2442 -0.292945,-1.7285 -0.187494,-0.5001 -0.44919,-0.9298 -0.761657,-1.2892 -0.296859,-0.375 -0.621051,-0.6856 -0.996013,-0.9668 -0.374976,-0.2813 -0.75385,-0.5567 -1.11319,-0.791 -0.359351,-0.2344 -0.697214,-0.4551 -1.025307,-0.674 -0.312479,-0.2187 -0.599565,-0.4668 -0.849541,-0.7324 -0.234359,-0.2657 -0.429656,-0.5508 -0.585889,-0.8789 -0.140617,-0.3281 -0.205065,-0.7051 -0.205062,-1.1427 -3e-6,-0.7969 0.220682,-1.4101 0.673773,-1.8164 0.468709,-0.4219 1.10928,-0.6446 1.874848,-0.6446 0.421835,0 0.796803,0.08 1.171779,0.2051 0.390586,0.1094 0.755791,0.2793 1.083896,0.498 l 0.673774,-1.6699 c -0.359354,-0.2187 -0.816348,-0.4004 -1.347547,-0.5567 -0.531213,-0.1562 -1.103432,-0.2344 -1.728375,-0.2344 z m 22.937585,0 c -0.921806,0 -1.769392,0.1563 -2.519326,0.4688 -0.734319,0.2969 -1.372938,0.7774 -1.904142,1.4649 -0.515585,0.6719 -0.919848,1.5586 -1.201074,2.6368 -0.281229,1.0782 -0.410123,2.3653 -0.410122,3.8967 -1e-6,1.4687 0.128893,2.7598 0.410122,3.838 0.29685,1.0626 0.714783,1.9337 1.230369,2.6368 0.531203,0.6876 1.156152,1.2091 1.874847,1.5529 0.718686,0.3281 1.499871,0.498 2.343559,0.498 0.687437,0 1.337773,-0.094 1.962731,-0.2344 0.624939,-0.1406 1.160052,-0.2949 1.581903,-0.498 l 0,-7.6469 -2.109204,0 0,6.3578 c -0.34373,0.1093 -0.775335,0.1464 -1.259663,0.1464 -0.578085,0 -1.083902,-0.1015 -1.552608,-0.3516 -0.468717,-0.2499 -0.87298,-0.6406 -1.201074,-1.1719 -0.328103,-0.5312 -0.574175,-1.2363 -0.761656,-2.0801 -0.171865,-0.8438 -0.263655,-1.8595 -0.263651,-3.047 -4e-6,-2.2189 0.28513,-3.8576 0.878835,-4.9514 0.593696,-1.1094 1.570179,-1.67 2.929449,-1.67 0.546822,0 1.042875,0.092 1.464724,0.2637 0.421831,0.1563 0.812424,0.336 1.17178,0.5859 l 0.644479,-1.7579 c -0.359356,-0.2499 -0.828068,-0.457 -1.406136,-0.6445 -0.578087,-0.2031 -1.201082,-0.293 -1.904142,-0.293 z m -18.250466,0.3516 c 0.343721,1.7189 0.681583,3.3361 1.025307,4.8049 0.34372,1.4532 0.681583,2.8185 1.025307,4.131 0.359342,1.3126 0.724547,2.5763 1.083896,3.7794 0.359342,1.1876 0.724546,2.3732 1.083896,3.5452 l 2.28497,0 c 0.359339,-1.172 0.695248,-2.3576 1.054602,-3.5452 0.359337,-1.2031 0.710871,-2.4668 1.054601,-3.7794 0.359336,-1.3125 0.71087,-2.6778 1.054602,-4.131 0.343711,-1.4688 0.710869,-3.086 1.054602,-4.8049 l -2.138498,0 c -0.203117,1.2032 -0.423803,2.4141 -0.673773,3.6329 -0.249988,1.2033 -0.539026,2.4025 -0.820246,3.5744 -0.281235,1.1719 -0.552697,2.3184 -0.84954,3.4279 -0.281234,1.0938 -0.56832,2.1212 -0.84954,3.1056 -0.281233,-0.9844 -0.58199,-2.0118 -0.878835,-3.1056 -0.281232,-1.1095 -0.539023,-2.256 -0.820246,-3.4279 -0.281231,-1.1719 -0.570269,-2.3711 -0.820245,-3.5744 -0.249983,-1.2188 -0.470668,-2.4297 -0.673774,-3.6329 l -2.197086,0 z m -13.123932,13.7701 c -0.421842,0 -0.775329,0.1289 -1.025307,0.4102 -0.249981,0.2812 -0.351534,0.6211 -0.351534,0.9961 0,0.3594 0.101553,0.6856 0.351534,0.9669 0.249978,0.2812 0.603465,0.4101 1.025307,0.4101 0.421838,0 0.74603,-0.1289 0.996013,-0.4101 0.265599,-0.2813 0.410119,-0.6075 0.410123,-0.9669 -4e-6,-0.375 -0.144524,-0.7149 -0.410123,-0.9961 -0.249983,-0.2813 -0.574175,-0.4102 -0.996013,-0.4102 z" style="" fill="#000000" fill-opacity="1" stroke="none"/><text xml:space="preserve" style="letter-spacing:0px;word-spacing:0px;" x="181.19939" y="1004.358" transform="scale(0.99993898,1.000061)" font-style="normal" font-weight="normal" font-size="37.49923325px" line-height="125%" font-family="Sans" fill="#000000" fill-opacity="1" stroke="none"><tspan x="181.19939" y="1004.358"/></text><path style="color:#000000;text-indent:0;text-decoration-line:none;text-transform:none;direction:ltr;block-progression:tb;baseline-shift:baseline;enable-background:accumulate;" d="M 49.998166,957.36219 C 25.154327,957.34771 5,977.52356 5,1002.3622 c 0,24.8386 20.154324,45 44.998166,45 24.843848,0 44.981151,-20.1615 45.001828,-45 4.24e-4,-0.5101 -0.0211,-0.959 -0.03662,-1.4448 -0.753178,-23.58512 -19.665633,-42.5676 -43.216697,-43.51126 -0.586399,-0.0235 -1.175367,-0.0436 -1.748515,-0.0439 z m 0,1.86958 c 0.539287,0 1.073054,0.0207 1.607536,0.0403 0.827378,0.17431 1.392855,0.83428 1.391488,1.5766 -0.01649,0.48925 0.346387,0.9088 0.833062,0.96317 0.566241,0.0623 1.05681,-0.3903 1.039953,-0.95951 9.23e-4,-0.49071 -0.105991,-0.95488 -0.296606,-1.37518 20.216419,2.13127 36.257096,18.21751 38.317192,38.46287 -0.424377,-0.19483 -0.892944,-0.30307 -1.389658,-0.30214 -0.568635,-0.0165 -1.020833,0.47292 -0.959394,1.03825 0.05329,0.48721 0.473036,0.85113 0.963057,0.835 0.747566,-0.002 1.411122,0.57008 1.580071,1.40628 0.01583,0.4807 0.03479,0.9602 0.03479,1.4448 0,23.8334 -19.299192,43.1286 -43.121488,43.1286 -23.822294,0 -43.1178261,-19.2952 -43.1178261,-43.1286 0,-23.83353 19.2955321,-43.13043 43.1178261,-43.13043 z" display="inline" overflow="visible" visibility="visible" fill="#000000" fill-opacity="1" stroke="none" marker="none"/><path style="color:#000000;text-indent:0;text-decoration-line:none;text-transform:none;direction:ltr;block-progression:tb;baseline-shift:baseline;enable-background:accumulate;" d="m 272.1875,707.3125 c -3.97527,0 -7.21875,3.24348 -7.21875,7.21875 l 0,44.15625 c 0,3.97527 3.24348,7.21875 7.21875,7.21875 l 46.6875,0 c 3.97527,0 7.21875,-3.24348 7.21875,-7.21875 l 0,-44.15625 c 0,-3.97527 -3.24348,-7.21875 -7.21875,-7.21875 l -46.6875,0 z m 0,2.375 46.6875,0 c 2.69511,0 4.8125,2.14864 4.8125,4.84375 l 0,44.15625 c 0,2.69511 -2.11739,4.84375 -4.8125,4.84375 l -46.6875,0 c -2.69511,0 -4.8125,-2.14864 -4.8125,-4.84375 l 0,-44.15625 c 0,-2.69511 2.11739,-4.84375 4.8125,-4.84375 z" clip-path="url(#a)" transform="matrix(0.78621342,0,0,0.7859257,-155.32519,397.56)" display="inline" overflow="visible" visibility="visible" fill="#000000" fill-opacity="1" stroke="none" marker="none"/></g><text x="0" y="115" fill="#000000" font-size="5px" font-weight="bold" font-family="'Helvetica Neue', Helvetica, Arial-Unicode, Arial, Sans-serif">Created by anbileru adaleru</text><text x="0" y="120" fill="#000000" font-size="5px" font-weight="bold" font-family="'Helvetica Neue', Helvetica, Arial-Unicode, Arial, Sans-serif">from the Noun Project</text></svg>